<?xml version="1.0" encoding="utf-8"?>
<!-- Generator: Adobe Illustrator 25.2.3, SVG Export Plug-In . SVG Version: 6.00 Build 0)  -->
<svg version="1.1" id="Layer_1" xmlns="http://www.w3.org/2000/svg" xmlns:xlink="http://www.w3.org/1999/xlink" x="0px" y="0px"
	 viewBox="0 0 2000 2000" style="enable-background:new 0 0 2000 2000;" xml:space="preserve">
<style type="text/css">
	.st0{clip-path:url(#SVGID_2_);}
	.st1{fill-rule:evenodd;clip-rule:evenodd;fill:#4A0E08;}
	.st2{fill-rule:evenodd;clip-rule:evenodd;fill:#FFFFFF;}
	.st3{fill-rule:evenodd;clip-rule:evenodd;fill:#E6E6E6;}
	.st4{fill-rule:evenodd;clip-rule:evenodd;fill:#FEC844;}
	.st5{fill-rule:evenodd;clip-rule:evenodd;fill:#F39639;}
	.st6{fill:#F39639;}
	.st7{fill-rule:evenodd;clip-rule:evenodd;fill:#C43634;}
	.st8{fill-rule:evenodd;clip-rule:evenodd;fill:#BF553D;}
	.st9{fill-rule:evenodd;clip-rule:evenodd;fill:#EA9E9E;}
	.st10{fill:#C45C5C;}
	.st11{fill:#E6E6E6;}
	.st12{fill-rule:evenodd;clip-rule:evenodd;fill:#BBBABA;}
	.st13{fill:#FFFFFF;}
	.st14{fill:#67A343;}
	.st15{fill:#C43634;}
</style>
<g>
	<defs>
		<polygon id="SVGID_1_" points="2000,0 2000,2000 0,2000 0,0 2000,0 		"/>
	</defs>
	<clipPath id="SVGID_2_">
		<use xlink:href="#SVGID_1_"  style="overflow:visible;"/>
	</clipPath>
	<g class="st0">
		<polygon class="st1" points="2027.55,-17.01 2027.55,2034.74 -52.59,2034.74 -52.59,-17.01 2027.55,-17.01 		"/>
	</g>
	<g class="st0">
		<polygon class="st2" points="892.61,687.19 1108.27,663.7 1348.7,738.74 1318.33,1002.02 1190.37,975.48 1285.46,1749.61 
			596.67,1752.24 745.06,1171.21 466.55,1085.85 545.32,806.83 892.61,687.19 		"/>
	</g>
	<g class="st0">
		<path class="st3" d="M794.47,715.73l-2.83,46.72c0,0,191.78,115.24,201.33,102.65c9.55-12.59,51.76-139.39,51.76-139.39
			l-40.81-58.65l-115.39,13.6L794.47,715.73L794.47,715.73z"/>
	</g>
	<g class="st0">
		<polygon class="st4" points="900.65,1047.1 733.7,730.07 683,749.97 808.42,1014.11 733.75,1146.55 728.24,1166.06 
			745.06,1171.21 596.67,1752.24 1285.46,1749.61 1196.41,1024.65 1139.05,951.28 1078.31,717.45 1022.1,663.69 961.23,668.85 
			1028.98,738.46 1092.87,1008.5 900.65,1047.1 		"/>
	</g>
	<g class="st0">
		<polygon class="st5" points="911.77,1155.18 1151.87,1099.04 1157.46,1196.1 911.2,1268.58 911.77,1155.18 		"/>
	</g>
	<g class="st0">
		<path class="st6" d="M694.38,1777.48c-0.21,0-0.42-0.02-0.64-0.07c-1.69-0.35-2.78-2-2.43-3.69l125.57-605.49
			c0.08-0.41,0.25-0.79,0.49-1.14l82.56-119.83c0.98-1.42,2.92-1.78,4.35-0.8c1.42,0.98,1.78,2.92,0.8,4.35l-82.2,119.31
			l-125.44,604.87C697.13,1776.46,695.83,1777.48,694.38,1777.48z"/>
	</g>
	<g class="st0">
		<path class="st7" d="M858.02,1170.72c10.15,0,18.4,8.24,18.4,18.4c0,10.15-8.24,18.4-18.4,18.4s-18.4-8.24-18.4-18.4
			C839.62,1178.96,847.86,1170.72,858.02,1170.72L858.02,1170.72z"/>
	</g>
	<g class="st0">
		<path class="st7" d="M841.15,1275.43c10.15,0,18.4,8.24,18.4,18.4c0,10.15-8.24,18.4-18.4,18.4c-10.15,0-18.4-8.24-18.4-18.4
			C822.76,1283.67,831,1275.43,841.15,1275.43L841.15,1275.43z"/>
	</g>
	<g class="st0">
		<path class="st7" d="M788.01,1565.26c10.15,0,18.4,8.24,18.4,18.4c0,10.15-8.24,18.4-18.4,18.4c-10.15,0-18.4-8.24-18.4-18.4
			C769.61,1573.5,777.86,1565.26,788.01,1565.26L788.01,1565.26z"/>
	</g>
	<g class="st0">
		<path class="st6" d="M1056.08,1702.78c-0.24,0-0.48-0.03-0.72-0.08l-200.69-47.45c-1.68-0.4-2.72-2.08-2.32-3.76
			c0.4-1.68,2.08-2.72,3.76-2.32l200.69,47.45c1.68,0.4,2.72,2.08,2.32,3.76C1058.78,1701.81,1057.5,1702.78,1056.08,1702.78z
			 M1093.67,1443.15c-0.53,0-1.06-0.13-1.55-0.41c-1.5-0.86-2.02-2.76-1.16-4.26l71.5-125.24c0.85-1.5,2.76-2.02,4.26-1.16
			c1.5,0.86,2.02,2.76,1.16,4.26l-71.5,125.24C1095.81,1442.58,1094.75,1443.15,1093.67,1443.15z"/>
	</g>
	<g class="st0">
		<polygon class="st8" points="1059.9,1519.26 1514.5,1620.16 1482.6,1650.11 1059.13,1557.56 1059.9,1519.26 		"/>
	</g>
	<g class="st0">
		<path class="st9" d="M463.38,1096.52l-65.44,178.96c0,0-7.37,82.81,30.53,118.87c37.9,36.07,353.01,147.54,353.01,147.54
			l77.59,61.48l193.2-8.96c0,0,57.5-50.27,60.64-67.18c3.15-16.91-98.49-128.56-98.49-128.56l-59.89-9.09l-252.3-127.91l19.98-78.96
			L463.38,1096.52L463.38,1096.52z"/>
	</g>
	<g class="st0">
		<path class="st10" d="M930.77,1601.39c-1.12,0-2.21-0.61-2.77-1.67l-37.77-71.65c-0.81-1.53-0.22-3.42,1.31-4.22
			c1.53-0.8,3.42-0.22,4.22,1.31l37.77,71.65c0.81,1.53,0.22,3.42-1.31,4.22C931.76,1601.27,931.26,1601.39,930.77,1601.39z
			 M995.86,1600.73c-1.16,0-2.27-0.65-2.81-1.76l-39.11-80.59c-0.75-1.55-0.11-3.42,1.45-4.18c1.55-0.75,3.42-0.1,4.18,1.45
			l39.11,80.59c0.75,1.55,0.11,3.42-1.45,4.18C996.78,1600.63,996.31,1600.73,995.86,1600.73z M1053.2,1595.31
			c-1.34,0-2.57-0.86-2.99-2.21l-30.04-97.83c-0.51-1.65,0.42-3.4,2.07-3.9c1.64-0.51,3.4,0.42,3.9,2.07l30.04,97.83
			c0.51,1.65-0.42,3.4-2.07,3.9C1053.81,1595.27,1053.5,1595.31,1053.2,1595.31z M840.74,1419.56c-1.25,0-2.43-0.76-2.91-1.99
			c-0.63-1.61,0.17-3.42,1.78-4.05l55.67-21.68c1.61-0.62,3.42,0.17,4.05,1.78c0.63,1.61-0.17,3.42-1.78,4.05l-55.67,21.68
			C841.5,1419.49,841.12,1419.56,840.74,1419.56z M799.54,1405.65c-1.21,0-2.36-0.71-2.87-1.89c-0.68-1.59,0.05-3.42,1.64-4.1
			l43.9-18.84c1.59-0.68,3.42,0.05,4.1,1.64c0.68,1.59-0.05,3.42-1.64,4.1l-43.9,18.84
			C800.37,1405.57,799.95,1405.65,799.54,1405.65z M734.11,1383.17c-1.27,0-2.46-0.78-2.93-2.04c-0.6-1.62,0.22-3.42,1.84-4.02
			l74.03-27.52c1.62-0.6,3.42,0.22,4.02,1.84c0.6,1.62-0.22,3.42-1.84,4.02l-74.03,27.52
			C734.84,1383.1,734.47,1383.17,734.11,1383.17z M679.8,1351.77c-1.28,0-2.48-0.79-2.94-2.06c-0.59-1.62,0.25-3.41,1.87-4
			l74.99-27.18c1.62-0.59,3.42,0.25,4,1.87c0.59,1.62-0.25,3.41-1.87,4l-74.99,27.18C680.51,1351.71,680.15,1351.77,679.8,1351.77z
			 M650.2,1332.4c-1.17,0-2.29-0.66-2.82-1.78c-0.74-1.56-0.08-3.42,1.47-4.17l44.8-21.37c1.56-0.74,3.42-0.08,4.17,1.47
			c0.74,1.56,0.08,3.42-1.47,4.17l-44.8,21.37C651.11,1332.3,650.65,1332.4,650.2,1332.4z M598.96,1306.32
			c-1.23,0-2.39-0.73-2.89-1.93c-0.66-1.59,0.1-3.42,1.69-4.08l60.1-24.93c1.6-0.66,3.42,0.1,4.08,1.69s-0.1,3.42-1.69,4.08
			l-60.1,24.93C599.77,1306.25,599.36,1306.32,598.96,1306.32z M703.23,1265.52c-0.42,0-0.85-0.09-1.26-0.27l-10.41-4.6
			c-0.03-0.01-0.06-0.03-0.1-0.04l-48.87-21.59c-1.58-0.7-2.29-2.54-1.6-4.12c0.7-1.58,2.54-2.3,4.12-1.6l39.53,17.46l-14.32-22.67
			c-0.92-1.46-0.49-3.39,0.97-4.31c1.46-0.92,3.39-0.49,4.31,0.97l19.29,30.54l9.59,4.23c1.58,0.7,2.29,2.54,1.6,4.12
			C705.57,1264.82,704.43,1265.52,703.23,1265.52z"/>
	</g>
	<g class="st0">
		<polygon class="st3" points="464.9,1024.36 424.53,1118.44 726.42,1210.68 767.22,1129.85 464.9,1024.36 		"/>
	</g>
	<g class="st0">
		<path class="st2" d="M1192.27,492.72c0,0-9.89-14.5-44.91-5.77c-35.02,8.73-56.27,27.36-53.32,43.06
			c2.94,15.71,51.08,11.11,75.65-5.94C1194.25,507.01,1192.27,492.72,1192.27,492.72L1192.27,492.72z"/>
	</g>
	<g class="st0">
		<path class="st11" d="M1122.22,527.96c-12.05,0-19.41-3.89-20.03-4.23c-1.01-0.55-1.38-1.82-0.82-2.83
			c0.55-1.01,1.82-1.37,2.83-0.82c0.1,0.06,7.66,4.05,20.01,3.58c11.47-0.44,29.57-4.95,50.62-23.91c0.86-0.77,2.17-0.7,2.94,0.15
			c0.77,0.85,0.7,2.17-0.15,2.94C1155.15,523.08,1135.73,527.96,1122.22,527.96z"/>
	</g>
	<g class="st0">
		<polygon class="st2" points="1373.78,432.55 1180.19,489.39 1187.94,502.83 1381.27,455.55 1373.78,432.55 		"/>
	</g>
	<g class="st0">
		<path class="st9" d="M1367.27,742.95l45.95,14.64l-67.19-196.24l-88.53-31.61l-25.55-39.17l136.15-35.65l-12.3-29.53l-22.06,36.06
			l-60.15-23.5l47.32-84.7l92.17-41.62l126.11,48.38l194.6,517.59c0,0-70.25,128.07-111.97,149.91
			c-41.72,21.83-285.13-24.38-285.13-24.38L1367.27,742.95L1367.27,742.95z"/>
	</g>
	<g class="st0">
		<path class="st10" d="M1436.69,832.08c-1.31,0-2.52-0.82-2.96-2.13l-24.41-72.54c-0.55-1.64,0.33-3.41,1.96-3.96
			c1.64-0.55,3.41,0.33,3.96,1.97l24.41,72.54c0.55,1.64-0.33,3.41-1.96,3.96C1437.35,832.02,1437.02,832.08,1436.69,832.08z
			 M1427.14,595.66c-18.76,0-44.77-0.54-50.92-3.42c-9.2-4.3-30.4-26.51-32.79-29.03c-1.19-1.25-1.13-3.23,0.12-4.42
			c1.25-1.19,3.23-1.14,4.42,0.12c6.26,6.6,24.02,24.45,30.9,27.67c6.02,2.82,44.7,3.12,67.67,2.64c1.76-0.07,3.15,1.33,3.19,3.06
			c0.04,1.73-1.33,3.15-3.06,3.19C1444.56,595.51,1436.81,595.66,1427.14,595.66z M1527.78,576.66c-17.98,0-33.08-5.01-34.05-5.33
			c-1.63-0.55-2.51-2.33-1.96-3.96c0.55-1.64,2.32-2.51,3.96-1.96c0.34,0.12,34.58,11.43,59.77-0.55c1.56-0.74,3.42-0.08,4.17,1.48
			c0.74,1.56,0.08,3.42-1.48,4.16C1548.43,575.15,1537.67,576.66,1527.78,576.66z M1540.52,490.74c-0.18,0-0.36-0.02-0.54-0.05
			l-50.57-8.82c-0.13,0.07-0.26,0.14-0.4,0.19c-1.27,0.5-2.68,0.11-3.52-0.88l-83.77-14.61c-0.79-0.14-1.51-0.58-1.98-1.23
			L1365.01,418l-6.17,10.36c-0.88,1.48-2.8,1.97-4.28,1.08c-1.48-0.88-1.97-2.8-1.08-4.28l8.55-14.34c0.03-0.05,0.05-0.09,0.08-0.14
			l32.35-54.28c0.88-1.48,2.8-1.97,4.28-1.08c1.48,0.88,1.97,2.8,1.08,4.28l-31.33,52.57l35.55,48.47l32.66,5.69l-22.06-46.36
			l-20.28-6.28c-1.65-0.51-2.57-2.26-2.06-3.91c0.51-1.65,2.26-2.57,3.91-2.06l18.91,5.85l21.79-61.57c0.58-1.63,2.36-2.48,3.99-1.9
			c1.63,0.58,2.48,2.36,1.9,3.99l-22.16,62.6c0.16,0.49,0.19,1.01,0.09,1.54l23.52,49.41l38.38,6.69l-15.09-38.37l-20.85-7.82
			c-1.62-0.61-2.43-2.41-1.83-4.02c0.61-1.62,2.41-2.44,4.02-1.83l19.5,7.31l26.34-70.16c0.61-1.61,2.4-2.43,4.02-1.83
			c1.62,0.61,2.43,2.41,1.83,4.02l-27.12,72.26l16.4,41.7l49.27,8.59l11.52-16.57l-18.55-39.61l-14.68,16.61
			c-1.14,1.29-3.12,1.42-4.41,0.27c-1.29-1.14-1.42-3.12-0.27-4.41l17.83-20.18c0.7-0.79,1.74-1.18,2.79-1.02
			c1.04,0.15,1.94,0.81,2.38,1.77l21.33,45.55c0.47,1.01,0.37,2.19-0.26,3.11l-13.69,19.69
			C1542.49,490.25,1541.53,490.74,1540.52,490.74z M1354.05,374.24c-0.48,0-0.96-0.11-1.42-0.34l-32.71-16.65
			c-1.54-0.78-2.15-2.66-1.37-4.2c0.78-1.54,2.66-2.15,4.2-1.37l32.71,16.65c1.54,0.78,2.15,2.66,1.37,4.2
			C1356.28,373.62,1355.19,374.24,1354.05,374.24z"/>
	</g>
	<g class="st0">
		<path class="st11" d="M749.38,1118.13c-0.02,0-0.05,0-0.07,0c-1.73-0.04-3.09-1.47-3.06-3.19l2.32-106.07
			c0.04-1.73,1.5-3.13,3.19-3.06c1.73,0.04,3.09,1.47,3.06,3.19l-2.32,106.07C752.47,1116.77,751.08,1118.13,749.38,1118.13z
			 M1192.01,980.29c-1.6,0-2.96-1.22-3.11-2.84l-2.99-32.53c0-0.04-0.01-0.07-0.01-0.11l-9.29-101.2c-0.16-1.72,1.11-3.24,2.83-3.4
			c1.72-0.16,3.24,1.11,3.4,2.83l8.28,90.2l26.04-52.92c0.76-1.55,2.64-2.19,4.18-1.42c1.55,0.76,2.19,2.64,1.42,4.18l-30.56,62.08
			l2.91,31.71c0.16,1.72-1.11,3.24-2.83,3.4C1192.2,980.28,1192.1,980.29,1192.01,980.29z M673.33,888.38
			c-1.04,0-2.06-0.52-2.65-1.47l-33.59-53.66l-90.84-24.49c-1.67-0.45-2.65-2.16-2.2-3.83c0.45-1.67,2.17-2.65,3.83-2.2l92.02,24.81
			c0.76,0.21,1.42,0.69,1.84,1.36l34.24,54.7c0.92,1.46,0.47,3.39-0.99,4.31C674.47,888.23,673.9,888.38,673.33,888.38z"/>
	</g>
	<g class="st0">
		<polygon class="st3" points="1324.8,716.72 1273.92,1008.09 1357.69,1026.29 1381.34,734.5 1324.8,716.72 		"/>
	</g>
	<g class="st0">
		<path class="st9" d="M968.91,382.02c0,0,89.11,145.92,96.18,197.58c7.06,51.65-36.35,71.9-78.94,75.1l-12.47,57.17
			c0,0,18.72,16.19,21.6,26.34c2.88,10.15-1.57,23.48-4.31,34.58c-2.73,11.09-12.11,32.05-12.11,32.05s-31.95-8.21-63.92-24.8
			c-37.92-19.67-76.87-49.19-76.6-63.69c0.73-38.68,5.95-121.24,5.95-121.24s-58.51-89.17-57.99-103.35
			C786.82,477.59,928.31,368.79,968.91,382.02L968.91,382.02z"/>
	</g>
	<g class="st0">
		<path class="st2" d="M768.07,446.01c0,0-10.05,39.79-60.74,40.53c-50.69,0.74-65.51-36.31-49.57-78.66
			c0,0-40.71-22.75-30.37-70.83c10.34-48.08,51.02-54.97,51.02-54.97s9.17-57.96,50.42-77.19c41.25-19.23,63.02-3.73,63.02-3.73
			s33.37-50.49,73.83-43.83c40.45,6.66,41.37,26.01,41.37,26.01s47.67-9.71,68.57,23.75c20.9,33.46-2.08,59.2-2.08,59.2
			s8.63,13.23,1.05,33.18c-7.58,19.94-53.79,15.49-53.79,15.49L768.07,446.01L768.07,446.01z"/>
	</g>
	<g class="st0">
		<path class="st3" d="M786.93,523.28c0,0,83.79-85.7,202.68-128.72l-65.66-114.34c0,0-122.35,32.24-186.94,145.96L786.93,523.28
			L786.93,523.28z"/>
	</g>
	<g class="st0">
		<path class="st9" d="M862.01,493.28c0,0-59.62-24.78-78.55,22.8c-18.93,47.58,47.47,118.32,88.82,72.33"/>
		<path class="st10" d="M841.2,606.4c-8.84,0-18.05-2.77-27.07-8.37c-25.81-16.02-45.46-53.23-33.58-83.11
			c5.16-12.98,13.7-22.06,25.36-26.98c25.23-10.64,56,1.91,57.3,2.45c1.59,0.66,2.35,2.49,1.69,4.08c-0.66,1.59-2.49,2.35-4.08,1.69
			c-0.4-0.16-29.74-12.06-52.49-2.45c-10.05,4.25-17.44,12.16-21.96,23.52c-10.73,26.96,7.4,60.8,31.06,75.49
			c19.08,11.84,38.23,9.51,52.53-6.4c1.16-1.28,3.13-1.39,4.41-0.23c1.28,1.15,1.39,3.13,0.23,4.41
			C865.13,601.03,853.51,606.4,841.2,606.4z"/>
	</g>
	<g class="st0">
		<path class="st10" d="M828.32,567.87c-0.3,0-0.61-0.04-0.91-0.14c-1.65-0.5-2.58-2.25-2.08-3.9l6.61-21.72l-23.58-9.36
			c-1.6-0.64-2.39-2.45-1.75-4.06c0.64-1.6,2.45-2.39,4.06-1.75l26.22,10.41c0.02,0.01,0.04,0.02,0.07,0.03l22.01,8.73
			c1.6,0.64,2.39,2.45,1.75,4.06c-0.64,1.6-2.45,2.39-4.06,1.75l-18.89-7.5l-6.46,21.23C830.89,567,829.66,567.87,828.32,567.87z"/>
	</g>
	<g class="st0">
		<path class="st11" d="M697.51,347.46c-1.07,0-1.98-0.81-2.07-1.9c-1.61-17.97,2.53-32.94,12.29-44.49c2.7-3.2,5.67-5.95,8.77-8.33
			c-14.22-11.73-36.77-9.86-37.01-9.84c-1.14,0.1-2.16-0.74-2.26-1.89c-0.1-1.15,0.74-2.16,1.89-2.26
			c1.06-0.1,25.39-2.14,40.89,11.5c15.82-10.47,33.39-12,34.33-12.07c1.15-0.09,2.15,0.76,2.24,1.91c0.09,1.15-0.76,2.15-1.91,2.24
			c-0.28,0.02-27.73,2.44-43.77,21.45c-9,10.67-12.8,24.6-11.3,41.41c0.1,1.15-0.74,2.16-1.89,2.26
			C697.64,347.46,697.58,347.46,697.51,347.46z M862.78,264.74c-0.89,0-1.72-0.58-1.99-1.48c-0.15-0.5-3.62-12.28,2.91-24.46
			c5.12-9.55,14.85-16.54,28.9-20.76c1.1-0.33,2.26,0.3,2.59,1.4c0.33,1.1-0.29,2.26-1.4,2.59c-12.96,3.89-21.85,10.19-26.43,18.73
			c-5.72,10.67-2.63,21.18-2.6,21.28c0.33,1.1-0.29,2.26-1.39,2.6C863.19,264.71,862.98,264.74,862.78,264.74z M821.5,223.61
			c-0.77,0-1.5-0.43-1.87-1.16c-0.1-0.19-4.92-8.95-28.62-19.38c-1.05-0.46-1.53-1.69-1.07-2.75c0.46-1.05,1.69-1.53,2.75-1.07
			c25.58,11.26,30.49,20.96,30.69,21.36c0.5,1.04,0.06,2.28-0.97,2.78C822.12,223.54,821.81,223.61,821.5,223.61z"/>
	</g>
	<g class="st0">
		<path class="st10" d="M1015.13,524.33c-0.57,0-1.15-0.16-1.67-0.48c-1.46-0.92-1.89-2.85-0.97-4.31
			c8.03-12.69,10.39-26.76,5.15-30.74c-5.32-4.03-15.03,4.01-15.12,4.09c-0.77,0.66-1.82,0.9-2.81,0.65
			c-0.99-0.25-1.79-0.97-2.15-1.92l-11.23-29.78c-0.61-1.61,0.21-3.42,1.82-4.03c1.62-0.61,3.42,0.21,4.03,1.82l9.79,25.96
			c4.62-2.94,12.91-6.74,19.45-1.77c9.25,7.02,5.02,25.36-3.65,39.06C1017.17,523.82,1016.16,524.33,1015.13,524.33z M918.08,479.61
			c-1.11,0-2.18-0.59-2.74-1.63c-0.83-1.51-0.27-3.41,1.24-4.24l27.65-15.13c1.52-0.83,3.41-0.27,4.24,1.24
			c0.83,1.51,0.27,3.41-1.24,4.24l-27.65,15.13C919.1,479.49,918.58,479.61,918.08,479.61z M984.98,444.19
			c-1.15,0-2.25-0.63-2.8-1.73c-0.77-1.54-0.15-3.42,1.4-4.19l22.46-11.25c1.54-0.77,3.42-0.15,4.19,1.4
			c0.77,1.54,0.15,3.42-1.39,4.19l-22.46,11.25C985.93,444.09,985.45,444.19,984.98,444.19z"/>
	</g>
	<g class="st0">
		<path class="st2" d="M914.27,582.15c0,0,55.41,3.41,93.76-51.74c0,0,55.83-4.62,69.94-45.3c0,0,0.85,34.49-17.47,57.3
			c-18.32,22.81-36.33,13.39-36.33,13.39s-13.82,27.46-42.25,36.11C953.49,600.58,914.27,582.15,914.27,582.15L914.27,582.15z"/>
	</g>
	<g class="st0">
		<path class="st10" d="M964.89,764.6c-0.13,0-0.27-0.01-0.41-0.03c-1.71-0.22-2.92-1.79-2.7-3.5c2.58-19.83,9.33-50.69,9.4-51
			c0.37-1.69,2.03-2.76,3.72-2.38c1.69,0.37,2.75,2.04,2.38,3.72c-0.07,0.31-6.76,30.91-9.3,50.46
			C967.78,763.46,966.44,764.6,964.89,764.6z M918.64,657.45c-1.72,0-3.12-1.39-3.12-3.11c-0.01-1.73,1.39-3.13,3.11-3.14
			l69.29-0.28c0,0,0.01,0,0.01,0c1.72,0,3.12,1.39,3.12,3.11c0.01,1.73-1.39,3.13-3.11,3.14l-69.29,0.28
			C918.64,657.45,918.64,657.45,918.64,657.45z"/>
	</g>
	<g class="st0">
		<polygon class="st8" points="1318.75,1751.3 1304.07,1685.37 1446.23,1682.8 1424.28,1750.69 1318.75,1751.3 		"/>
	</g>
	<g class="st0">
		<polygon class="st8" points="1567.39,1753.87 1553.6,1682.63 1702.89,1678.82 1680.7,1749.75 1567.39,1753.87 		"/>
	</g>
	<g class="st0">
		<path class="st12" d="M1158.62,1598.9l650.39,3.12c0,0,11.08,63.26-53.41,95.54l-528.42,4.19
			C1227.18,1701.74,1155.29,1693.4,1158.62,1598.9L1158.62,1598.9z"/>
	</g>
	<g class="st0">
		<path class="st13" d="M1498.07,1483.99c-0.57,0-1.16-0.16-1.68-0.49c-1.46-0.93-1.88-2.86-0.96-4.31
			c0.27-0.43,26.97-43.1,3.87-67.31c-27.79-29.13-21.98-52.96-4.71-79.78c14.06-21.82-2.43-41.1-18.37-59.75
			c-3.15-3.68-6.4-7.49-9.31-11.2c-18.93-24.18,17.63-68.1,19.19-69.96c1.11-1.32,3.08-1.49,4.4-0.38c1.32,1.11,1.49,3.08,0.38,4.4
			c-0.35,0.42-34.87,41.88-19.05,62.08c2.82,3.61,5.89,7.2,9.14,10.99c16.61,19.43,35.44,41.46,18.87,67.2
			c-19.28,29.93-18.24,48.79,3.97,72.08c26.48,27.75-1.9,73.07-3.12,74.98C1500.11,1483.48,1499.1,1483.99,1498.07,1483.99z
			 M1417.39,1431.04c-0.64,0-1.28-0.19-1.84-0.6c-24.08-17.54-9.59-51.87,2.06-79.45c8.12-19.24,0.26-27.51-11.63-40.02
			c-5.84-6.15-12.47-13.11-18.21-22.54c-18.37-30.16,13.92-61.5,15.3-62.82c1.25-1.19,3.23-1.15,4.42,0.11
			c1.19,1.25,1.14,3.23-0.11,4.42c-0.4,0.39-30,29.24-14.28,55.04c5.39,8.86,11.77,15.57,17.4,21.49
			c12.11,12.74,22.57,23.75,12.86,46.76c-13.72,32.49-22.74,58.42-4.14,71.97c1.4,1.02,1.7,2.97,0.69,4.37
			C1419.31,1430.59,1418.36,1431.04,1417.39,1431.04z M1580.64,1421.87c-1.01,0-2-0.49-2.6-1.39c-0.98-1.48-24-36.51-13.47-67.7
			c10.01-29.68,4.4-54.35-19.38-85.15c-11-14.26-11.83-30.94-2.38-48.25c6.93-12.7,16.89-21.17,17.31-21.53
			c1.32-1.11,3.29-0.94,4.4,0.38s0.94,3.29-0.37,4.4l0,0c-0.09,0.08-9.58,8.17-15.93,19.89c-8.2,15.13-7.56,29.02,1.92,41.3
			c25.23,32.68,31.12,59.04,20.35,90.97c-9.53,28.26,12.53,61.9,12.75,62.23c0.96,1.44,0.57,3.38-0.87,4.33
			C1581.84,1421.7,1581.23,1421.87,1580.64,1421.87z"/>
	</g>
	<g class="st0">
		<polygon class="st2" points="1793.65,1739.18 1793.65,1772.14 175.69,1772.14 175.69,1739.18 1793.65,1739.18 		"/>
	</g>
	<g class="st0">
		<polygon class="st8" points="918.76,1701.02 918.76,1741.26 422.56,1741.26 422.56,1701.02 918.76,1701.02 		"/>
	</g>
	<g class="st0">
		<path class="st7" d="M519.59,1582.84c45.81-7.39,71.99,23.46,66.26,60.9c-5.08,33.22-29.69,60.9-66.26,60.9
			c-36.57,0-70.91-27.89-70.91-61.5C448.68,1609.53,483.49,1588.66,519.59,1582.84L519.59,1582.84z"/>
	</g>
	<g class="st0">
		<path class="st14" d="M528.88,1617.25c-0.49,0-0.97-0.17-1.35-0.49c-12.8-10.83-34.63-3.51-34.85-3.44
			c-1.09,0.38-2.27-0.2-2.65-1.29c-0.37-1.09,0.2-2.27,1.29-2.65c0.74-0.26,14.1-4.75,26.9-1.71c-6.44-21.32-24.3-33.21-24.49-33.33
			c-0.96-0.63-1.23-1.92-0.6-2.88c0.63-0.96,1.92-1.24,2.88-0.61c0.86,0.56,20.84,13.81,26.95,38.33c1.51,0.62,3,1.38,4.42,2.29
			c0.02-0.16,0.06-0.32,0.12-0.48c5.18-13.89-1.19-45.44-1.26-45.76c-0.23-1.13,0.5-2.23,1.62-2.46c1.12-0.23,2.23,0.5,2.46,1.62
			c0.25,1.2,5.38,26.6,2.49,42.71c1.25-1.23,2.66-2.46,4.2-3.53c0.2-13.91,14.37-23.96,14.98-24.39c0.94-0.66,2.24-0.43,2.9,0.52
			c0.66,0.94,0.43,2.24-0.51,2.9c-0.16,0.11-11.28,8.04-12.98,18.59c2.38-0.92,4.93-1.29,7.56-0.71c1.12,0.24,1.84,1.35,1.59,2.48
			c-0.24,1.12-1.36,1.84-2.48,1.59c-8.63-1.88-17.34,11.59-17.43,11.73c-0.32,0.51-0.85,0.85-1.44,0.94
			C529.09,1617.24,528.99,1617.25,528.88,1617.25z"/>
	</g>
	<g class="st0">
		<path class="st7" d="M676.27,1580.09c45.81-7.39,71.99,23.46,66.26,60.9c-5.08,33.22-29.69,60.9-66.26,60.9
			c-36.57,0-70.91-27.89-70.91-61.5C605.36,1606.78,640.16,1585.92,676.27,1580.09L676.27,1580.09z"/>
	</g>
	<g class="st0">
		<path class="st14" d="M685.56,1614.51c-0.49,0-0.97-0.17-1.35-0.49c-12.8-10.83-34.64-3.51-34.85-3.44
			c-1.09,0.37-2.27-0.21-2.65-1.29c-0.37-1.09,0.2-2.27,1.29-2.65c0.74-0.26,14.1-4.75,26.9-1.71
			c-6.44-21.37-24.29-33.2-24.48-33.33c-0.96-0.63-1.24-1.92-0.61-2.88c0.63-0.96,1.92-1.24,2.88-0.61
			c0.86,0.56,20.84,13.81,26.95,38.33c1.52,0.62,3,1.38,4.43,2.29c0.02-0.16,0.06-0.32,0.12-0.48c5.18-13.88-1.19-45.44-1.26-45.76
			c-0.23-1.13,0.5-2.23,1.62-2.46c1.12-0.23,2.23,0.5,2.46,1.62c0.25,1.2,5.38,26.6,2.49,42.71c1.25-1.23,2.66-2.46,4.2-3.53
			c0.2-13.91,14.37-23.96,14.98-24.39c0.94-0.66,2.24-0.43,2.9,0.52c0.66,0.94,0.43,2.24-0.51,2.9
			c-0.15,0.11-11.28,8.04-12.98,18.59c2.38-0.92,4.93-1.29,7.56-0.71c1.12,0.25,1.84,1.36,1.59,2.48s-1.35,1.84-2.48,1.59
			c-8.63-1.87-17.34,11.59-17.43,11.72c-0.32,0.51-0.85,0.85-1.44,0.94C685.77,1614.5,685.67,1614.51,685.56,1614.51z"/>
	</g>
	<g class="st0">
		<path class="st2" d="M399.83,1739.47l-0.84-304.13c0,0-0.5-32.87-43.58-54.21l-17-54.35l-49.8-0.96l-11.22,54.86
			c0,0-60.3,7.99-58.02,64.27l7.02,293.23L399.83,1739.47L399.83,1739.47z"/>
	</g>
	<g class="st0">
		<polygon class="st8" points="274.31,1313.41 273.33,1339.84 355.25,1337.78 350.89,1311.76 274.31,1313.41 		"/>
	</g>
	<g class="st0">
		<polygon class="st5" points="219.44,1448.15 226.38,1738.18 399.83,1739.47 399.03,1447.53 219.44,1448.15 		"/>
	</g>
	<g class="st0">
		<path class="st4" d="M234,1494.91l4.68,231.83l147.93-1.68l-1.66-240.54c0,0-33.93,32.38-65.74,18.55
			C287.45,1489.28,273.57,1480.32,234,1494.91L234,1494.91z"/>
	</g>
	<g class="st0">
		<path class="st15" d="M255.23,1726.51c-0.05,0-0.1,0-0.16-0.01c-1.15-0.08-2.01-1.08-1.92-2.23l0.41-5.51
			c0.09-1.15,1.08-2.01,2.23-1.92c1.15,0.08,2.01,1.08,1.92,2.23l-0.41,5.51C257.23,1725.67,256.31,1726.51,255.23,1726.51z
			 M342.16,1717.5c-0.99,0-1.87-0.71-2.05-1.72c-0.13-0.74-0.28-1.19-0.43-1.63c-0.42-1.28-0.64-2.22,0-4.43
			c0.32-1.11,1.48-1.75,2.58-1.42c1.1,0.32,1.74,1.47,1.42,2.58c-0.33,1.12-0.29,1.24-0.05,1.96c0.17,0.5,0.39,1.18,0.57,2.22
			c0.2,1.13-0.56,2.21-1.69,2.41C342.4,1717.49,342.28,1717.5,342.16,1717.5z M362.58,1716.04c-0.55,0-1.09-0.21-1.5-0.64
			c-0.8-0.83-0.78-2.15,0.05-2.95c0.52-0.5,1.01-0.98,6.21-4.54c0.95-0.65,2.25-0.41,2.9,0.54c0.65,0.95,0.41,2.25-0.54,2.9
			c-4.92,3.37-5.35,3.79-5.68,4.1C363.62,1715.84,363.1,1716.04,362.58,1716.04z M275.58,1711.96c-0.46,0-0.92-0.15-1.31-0.46
			c-0.89-0.72-1.03-2.04-0.31-2.93l1.36-1.68c0.72-0.89,2.04-1.03,2.93-0.31s1.03,2.04,0.31,2.93l-1.36,1.68
			C276.79,1711.7,276.19,1711.96,275.58,1711.96z M308.37,1710.93c-0.53,0-1.06-0.2-1.46-0.6c-2.59-2.56-4.06-3.78-4.85-4.44
			c-0.81-0.68-1.51-1.26-1.5-2.38c0.01-0.48,0.17-1.19,0.91-1.78c0.9-0.71,2.21-0.56,2.93,0.34c0.15,0.19,0.27,0.4,0.34,0.62
			c0.84,0.7,2.39,2,5.1,4.66c0.82,0.81,0.83,2.13,0.02,2.95C309.45,1710.73,308.91,1710.93,308.37,1710.93z M337.5,1694.03
			c-0.18,0-0.37-0.02-0.56-0.08c-1.11-0.31-1.76-1.46-1.45-2.57l0.23-0.82c0.31-1.11,1.46-1.76,2.56-1.45
			c1.11,0.31,1.76,1.46,1.45,2.57l-0.23,0.82C339.25,1693.43,338.41,1694.03,337.5,1694.03z M271.48,1693.63
			c-0.26,0-0.53-0.05-0.78-0.15c-1.07-0.43-1.58-1.65-1.15-2.71c0.6-1.49,0.86-2.31,1-2.75c0.46-1.45,1.32-2.11,2.53-1.98
			c1.14,0.12,1.97,1.15,1.85,2.29c-0.04,0.42-0.21,0.8-0.46,1.11c-0.17,0.52-0.46,1.42-1.07,2.9
			C273.08,1693.14,272.3,1693.63,271.48,1693.63z M255.71,1693.17c-0.4,0-0.81-0.12-1.16-0.36c-0.95-0.64-1.2-1.94-0.56-2.89
			c0.72-1.06,1.35-1.39,2.21-1.61c0.18-0.05,0.32-0.08,0.57-0.21c1.03-0.52,2.28-0.1,2.8,0.93c0.52,1.03,0.1,2.28-0.93,2.8
			c-0.53,0.27-0.94,0.4-1.23,0.48C257.01,1692.86,256.37,1693.17,255.71,1693.17z M296.43,1690.38c-0.11,0-0.22-0.01-0.33-0.03
			c-1.67-0.27-2.41-0.3-2.76-0.31c-0.43-0.02-1.44-0.06-2.09-1.06c-0.63-0.96-0.35-2.25,0.61-2.88c0.57-0.37,1.25-0.42,1.84-0.21
			c0.49,0.02,1.39,0.09,3.06,0.35c1.14,0.18,1.91,1.25,1.72,2.39C298.32,1689.66,297.43,1690.38,296.43,1690.38z M294.74,1686.71
			C294.74,1686.71,294.74,1686.71,294.74,1686.71C294.74,1686.71,294.74,1686.71,294.74,1686.71z M319.33,1683.74
			c-0.99,0-1.87-0.71-2.05-1.71c-0.1-0.55-0.19-1.01-0.26-1.4c-0.43-2.25-0.5-2.77-0.39-5.97c0.04-1.15,1.03-2.02,2.16-2.01
			c1.15,0.04,2.05,1.01,2.01,2.16c-0.1,2.83-0.06,3.04,0.32,5.04c0.08,0.4,0.17,0.87,0.27,1.44c0.2,1.13-0.55,2.22-1.68,2.42
			C319.57,1683.73,319.45,1683.74,319.33,1683.74z M337.17,1682.67c-1.08,0-1.99-0.83-2.07-1.92c-0.09-1.16-0.16-1.96-0.21-2.52
			c-0.14-1.6-0.19-2.2,0.52-2.98c0.77-0.85,2.09-0.91,2.94-0.13c0.58,0.53,0.79,1.3,0.63,2.01c0.01,0.17,0.03,0.41,0.06,0.75
			c0.05,0.57,0.12,1.38,0.21,2.55c0.09,1.15-0.77,2.15-1.92,2.24C337.28,1682.67,337.23,1682.67,337.17,1682.67z M336.95,1676.66
			l1.54,1.41c0,0,0,0,0,0c0,0,0,0,0,0L336.95,1676.66z M370.02,1674.11c-0.35,0-0.71-0.09-1.04-0.28c-1-0.58-1.34-1.85-0.76-2.85
			l0.43-0.75c0.58-1,1.85-1.34,2.85-0.76c1,0.58,1.34,1.85,0.76,2.85l-0.43,0.75C371.44,1673.74,370.74,1674.11,370.02,1674.11z
			 M241.75,1673.09c-0.4,0-0.8-0.11-1.15-0.35l-1.92-1.28c-0.96-0.64-1.22-1.93-0.58-2.89c0.64-0.96,1.93-1.21,2.89-0.58l1.92,1.28
			c0.96,0.64,1.21,1.93,0.58,2.89C243.08,1672.76,242.42,1673.09,241.75,1673.09z M283.32,1662.98c-1.13,0-2.06-0.91-2.08-2.05
			c-0.02-1.15,0.9-2.1,2.05-2.12l6.27-0.11c0.01,0,0.02,0,0.04,0c1.13,0,2.06,0.91,2.08,2.05c0.02,1.15-0.9,2.1-2.05,2.12
			l-6.27,0.11C283.34,1662.98,283.33,1662.98,283.32,1662.98z M317.63,1655.77c-0.1,0-0.21-0.01-0.32-0.02
			c-1.14-0.17-1.92-1.24-1.75-2.37l0.3-1.93c0.18-1.14,1.23-1.92,2.38-1.74c1.14,0.18,1.92,1.24,1.74,2.38l-0.29,1.92
			C319.53,1655.03,318.64,1655.77,317.63,1655.77z M353.63,1652.34c-0.81,0-1.58-0.47-1.92-1.26c-0.45-1.06,0.04-2.28,1.1-2.73
			l2.65-1.13c1.06-0.45,2.28,0.04,2.73,1.1c0.45,1.06-0.04,2.28-1.1,2.73l-2.65,1.13C354.18,1652.29,353.9,1652.34,353.63,1652.34z
			 M263.17,1649.86c-0.29,0-0.63-0.06-0.99-0.24c-0.53-0.18-0.99-0.58-1.23-1.14c-0.46-1.06,0.03-2.28,1.08-2.74
			c0.19-0.08,0.54-0.2,0.97-0.17c0.09-0.04,0.2-0.1,0.34-0.16l3.73-1.75c1.04-0.49,2.28-0.04,2.77,1c0.49,1.04,0.04,2.28-1,2.77
			l-3.73,1.75c-0.76,0.36-0.85,0.4-1.06,0.49C263.88,1649.75,263.56,1649.86,263.17,1649.86z M298.03,1642.77
			c-1.02,0-1.92-0.76-2.06-1.8c-0.07-0.51-0.16-0.88-0.24-1.21c-0.31-1.27-0.45-2.52,1.2-3.89c0.89-0.73,2.2-0.61,2.93,0.27
			c0.67,0.81,0.63,1.98-0.06,2.73c0.09,0.37,0.21,0.87,0.3,1.53c0.16,1.14-0.64,2.19-1.78,2.35
			C298.22,1642.76,298.12,1642.77,298.03,1642.77z M375.7,1638.95c-0.07,0-0.14,0-0.2-0.01c-1.15-0.11-1.98-1.13-1.87-2.27
			c0.1-1.03,0.52-1.33,2.09-2.45l2.18-1.57c0.93-0.67,2.24-0.46,2.91,0.47c0.67,0.93,0.46,2.24-0.47,2.91
			c-0.99,0.71-1.69,1.22-2.19,1.57c-0.42,0.3-0.68,0.49-0.84,0.61C376.91,1638.66,376.33,1638.95,375.7,1638.95z M313.6,1628.41
			c-0.43,0-0.86-0.13-1.24-0.41c-0.93-0.68-1.12-1.99-0.44-2.91l0.79-1.06c0.69-0.92,1.99-1.12,2.91-0.43
			c0.92,0.68,1.12,1.99,0.43,2.91l-0.79,1.06C314.87,1628.12,314.24,1628.41,313.6,1628.41z M281.46,1625c-0.03,0-0.06,0-0.1,0
			c-1.15-0.05-2.04-1.03-1.99-2.18c0.01-0.32,0.01-0.54,0.01-0.7c-0.03-1.93,1.21-2.45,1.96-2.58c1.13-0.21,2.22,0.54,2.43,1.67
			c0.09,0.49,0,0.96-0.21,1.36c0,0.13-0.01,0.28-0.01,0.44C283.48,1624.13,282.56,1625,281.46,1625z M281.71,1621.58l0.37,2.05
			c0,0,0,0,0,0L281.71,1621.58z M332.63,1624.97c-0.22,0-0.45-0.04-0.67-0.11c-1.09-0.37-1.67-1.55-1.3-2.64
			c1.74-5.12,2.52-6.13,3.3-6.84c0.85-0.78,2.17-0.72,2.94,0.13c0.78,0.85,0.72,2.17-0.13,2.94c-0.41,0.37-1.18,2.18-2.17,5.1
			C334.31,1624.42,333.5,1624.97,332.63,1624.97z M358.67,1620.31c-0.55,0-1.1-0.22-1.5-0.66l-0.1-0.11
			c-0.78-0.85-0.74-2.19,0.11-2.97c0.85-0.78,2.15-0.74,2.92,0.1l0.1,0.11c0.78,0.85,0.74,2.19-0.11,2.97
			C359.69,1620.13,359.18,1620.31,358.67,1620.31z M251.19,1619.05c-0.52,0-1.04-0.19-1.44-0.58c-0.85-0.81-1.44-1.4-1.87-1.82
			c-0.21-0.21-0.37-0.36-0.49-0.49c-0.64-0.21-1.17-0.72-1.36-1.41c-0.31-1.11,0.33-2.26,1.43-2.57c1.4-0.4,2.14,0.31,3.34,1.5
			c0.42,0.41,1,0.98,1.83,1.78c0.83,0.79,0.86,2.11,0.07,2.95C252.28,1618.84,251.73,1619.05,251.19,1619.05z M271.47,1603.04
			c-0.4,0-0.81-0.12-1.16-0.36c-0.95-0.64-1.21-1.94-0.56-2.89l1-1.48c0.64-0.95,1.94-1.21,2.89-0.56c0.95,0.64,1.21,1.94,0.56,2.89
			l-1,1.48C272.8,1602.71,272.14,1603.04,271.47,1603.04z M303.53,1596.74c-0.07,0-0.13,0-0.2-0.01c-1.15-0.11-1.99-1.12-1.88-2.27
			c0.07-0.73,0.08-1.21,0.09-1.6c0.03-1.12,0.08-1.79,0.75-3.79c0.36-1.09,1.55-1.68,2.64-1.32c1.09,0.37,1.68,1.54,1.32,2.64
			c-0.5,1.51-0.51,1.79-0.54,2.6c-0.01,0.46-0.03,1.02-0.11,1.88C305.5,1595.93,304.59,1596.74,303.53,1596.74z M366.33,1595.99
			c-0.68,0-1.35-0.34-1.75-0.95l-2.02-3.12c-0.63-0.96-0.35-2.25,0.62-2.88c0.96-0.63,2.26-0.35,2.88,0.62l2.03,3.12
			c0.62,0.97,0.35,2.26-0.62,2.88C367.11,1595.88,366.72,1595.99,366.33,1595.99z M246.07,1585.77c-0.32,0-0.64-0.07-0.94-0.22
			l-0.59-0.3c-1.03-0.52-1.44-1.77-0.92-2.8c0.52-1.03,1.77-1.44,2.8-0.92l0.59,0.3c1.03,0.52,1.44,1.77,0.92,2.8
			C247.57,1585.35,246.83,1585.77,246.07,1585.77z M328.09,1583.4c-0.81,0-1.58-0.48-1.92-1.27c-0.45-1.06,0.04-2.28,1.1-2.73
			l3.77-1.6c1.06-0.45,2.28,0.04,2.73,1.1c0.45,1.06-0.04,2.28-1.1,2.73l-3.77,1.6C328.64,1583.34,328.36,1583.4,328.09,1583.4z
			 M273.61,1574.53c-1.04,0-1.94-0.78-2.07-1.83l-0.16-1.3c-0.14-1.14,0.68-2.18,1.82-2.32c1.15-0.13,2.18,0.68,2.32,1.82l0.16,1.3
			c0.14,1.14-0.68,2.18-1.82,2.32C273.77,1574.52,273.69,1574.53,273.61,1574.53z M352.33,1565.74c-0.32,0-0.65-0.08-0.96-0.23
			c-1.02-0.53-1.42-1.79-0.89-2.81c0.4-0.78,0.45-1.57,0.5-2.34c0.06-0.99,0.14-2.35,1.37-3.14c1.3-0.84,2.81-0.26,3.45-0.01
			c1.07,0.41,1.61,1.62,1.2,2.69c-0.31,0.82-1.09,1.32-1.91,1.34c-0.08,0.93-0.26,2.12-0.91,3.38
			C353.81,1565.33,353.09,1565.74,352.33,1565.74z M297.59,1560.57c-0.32,0-0.64-0.07-0.94-0.22l-2.21-1.11
			c-1.03-0.52-1.44-1.77-0.92-2.8c0.52-1.03,1.77-1.44,2.8-0.92l2.21,1.11c1.03,0.52,1.44,1.77,0.92,2.8
			C299.08,1560.15,298.35,1560.57,297.59,1560.57z M252.88,1553.74c-0.33,0-0.67-0.08-0.99-0.25c-1.01-0.55-1.39-1.81-0.84-2.82
			l0.96-1.77c0.55-1.01,1.81-1.39,2.82-0.84c1.01,0.55,1.39,1.81,0.84,2.82l-0.96,1.77
			C254.34,1553.35,253.62,1553.74,252.88,1553.74z M321.13,1545.15c-0.87,0-1.68-0.54-1.97-1.41c-0.24-0.72-0.46-1.22-0.65-1.67
			c-0.71-1.68-0.94-2.57-0.57-5.33c0.15-1.14,1.19-1.95,2.34-1.79c1.14,0.15,1.94,1.2,1.79,2.34c-0.25,1.9-0.18,2.07,0.28,3.16
			c0.2,0.48,0.46,1.09,0.75,1.94c0.37,1.09-0.21,2.27-1.3,2.64C321.58,1545.11,321.35,1545.15,321.13,1545.15z M278.49,1542.18
			c-0.56,0-1.11-0.22-1.52-0.66c-0.79-0.84-0.74-2.16,0.1-2.94l2.08-1.94c0.84-0.79,2.16-0.74,2.94,0.1
			c0.79,0.84,0.74,2.16-0.1,2.94l-2.08,1.94C279.51,1541.99,279,1542.18,278.49,1542.18z M344.41,1535.25
			c-0.87,0-1.68-0.55-1.97-1.42l-1.09-3.26c-0.37-1.09,0.22-2.27,1.31-2.64c1.09-0.37,2.27,0.22,2.64,1.31l1.09,3.26
			c0.37,1.09-0.22,2.27-1.31,2.64C344.85,1535.21,344.63,1535.25,344.41,1535.25z M368.4,1527.49c-0.87,0-1.68-0.55-1.97-1.42
			l-1.13-3.34c-0.37-1.09,0.22-2.27,1.31-2.64c1.09-0.37,2.27,0.22,2.64,1.31l1.13,3.33c0.37,1.09-0.21,2.27-1.3,2.64
			C368.85,1527.46,368.62,1527.49,368.4,1527.49z M293.29,1522.95c-1.02,0-1.92-0.76-2.06-1.8l-0.13-0.91
			c-0.15-1.14,0.64-2.19,1.78-2.34c1.14-0.16,2.19,0.64,2.34,1.79l0.13,0.9c0.16,1.14-0.64,2.19-1.78,2.35
			C293.48,1522.94,293.39,1522.95,293.29,1522.95z M258.94,1518.41c-0.09,0-0.18-0.01-0.26-0.02c-1.14-0.14-1.95-1.19-1.8-2.33
			l0.75-5.94c0.14-1.14,1.18-1.95,2.33-1.81c1.14,0.14,1.95,1.18,1.81,2.33l-0.75,5.94
			C260.87,1517.64,259.97,1518.41,258.94,1518.41z M323.45,1509.34c-0.46,0-0.91-0.15-1.3-0.45c-0.9-0.72-1.05-2.03-0.33-2.93
			l0.38-0.47c0.72-0.89,2.03-1.04,2.93-0.31c0.9,0.72,1.04,2.03,0.31,2.93l-0.36,0.45C324.67,1509.07,324.06,1509.34,323.45,1509.34
			z M282.3,1507.17c-0.25,0-0.5-0.04-0.75-0.14c-1.07-0.42-1.61-1.62-1.19-2.69c0.17-0.45,0.1-1,0.03-1.53
			c-0.1-0.73-0.27-2.09,0.91-2.94c1.23-0.88,2.62-0.2,3.15,0.06c1.03,0.5,1.46,1.75,0.96,2.79c-0.18,0.36-0.45,0.65-0.77,0.85
			c0.01,0.67-0.07,1.46-0.39,2.28C283.92,1506.66,283.13,1507.17,282.3,1507.17z M289.08,1493.79c-0.03,0-0.06,0-0.09,0l-0.46-0.02
			c-1.15-0.05-2.04-1.02-1.99-2.17c0.05-1.15,1.05-2.05,2.17-1.99l0.46,0.02c1.15,0.05,2.04,1.02,1.99,2.17
			C291.11,1492.92,290.19,1493.79,289.08,1493.79z"/>
	</g>
</g>
</svg>
